# xmcd CD database file
#
# Track frame offsets:
#	150
#	17832
#	36680
#	55876
#	86518
#	104553
#	126670
#	156722
#	179237
#	211121
#	233486
#	252008
#	271636
#	306151
#
# Disc length: 4273 seconds
#
# Revision: 5
# Processed by: cddbd v1.4PL0 Copyright (c) Steve Scherf et al.
# Submitted via: CDex 1.50Beta3
#
DISCID=cb10af0e
DTITLE=Gary Moore - Ballads and Blues 1982-1994
DYEAR=1994
DGENRE=Ballad
TTITLE0=Always Gonna Love You
TTITLE1=Still Got The Blues
TTITLE2=Empty Rooms
TTITLE3=Parisienne Walkways
TTITLE4=One Day
TTITLE5=Separate Ways
TTITLE6=Story Of The Blues
TTITLE7=Crying In The Shadows
TTITLE8=With Love (Remember)
TTITLE9=Midnight Blues
TTITLE10=Falling In Love With You
TTITLE11=Jumpin' At Shadows
TTITLE12=Blues For Narada
TTITLE13=Johnny Boy
EXTD=YEAR: 1994
EXTT0=
EXTT1=
EXTT2=
EXTT3=
EXTT4=
EXTT5=
EXTT6=
EXTT7=
EXTT8=
EXTT9=
EXTT10=
EXTT11=
EXTT12=
EXTT13=
PLAYORDER=
